<?xml version="1.0" encoding="utf-8"?>
<!-- Generator: Adobe Illustrator 27.7.0, SVG Export Plug-In . SVG Version: 6.00 Build 0)  -->
<svg version="1.1" id="Layer_1" xmlns="http://www.w3.org/2000/svg" xmlns:xlink="http://www.w3.org/1999/xlink" x="0px" y="0px"
	 viewBox="0 0 612 792" style="enable-background:new 0 0 612 792;" xml:space="preserve">
<style type="text/css">
	.st0{fill:#010101;}
	.st1{fill:#141312;}
	.st2{fill:#040403;}
	.st3{fill:#FCFCFC;}
	.st4{fill:#FDFDFD;}
	.st5{fill:#B4B1B1;}
	.st6{fill:#080808;}
	.st7{fill:#5C5959;}
	.st8{fill:#080707;}
	.st9{fill:#070606;}
	.st10{fill:#FAFAFA;}
	.st11{fill:#0B0A0A;}
</style>
<g>
	<path class="st0" d="M52.29,554.77c0-0.67,0-1.33,0-2c0-2.33,0-4.66,0-6.99c0-0.67,0-1.33,0-2c0.28-0.13,0.75-0.2,0.82-0.4
		c6.45-19.36,12.89-38.72,19.28-58.1c4.42-13.42,8.76-26.86,13.13-40.3c0.55-1.35,1.11-2.69,1.66-4.04c1.39-3.05,2.67-6.17,4.2-9.15
		c11.97-23.37,30.28-39.77,55.17-48.2c9.7-3.28,19.98-4.91,30.03-7.14c14.32-3.18,28.68-6.15,42.99-9.34
		c8.56-1.91,17.06-4.07,25.4-6.08c0-12.09,0-23.39,0-34.7c-0.56-1.09-1.13-2.19-1.69-3.28c-0.6-0.28-1.21-0.56-1.81-0.85
		c-1.4-1.07-2.8-2.13-4.21-3.2c-0.39-0.26-0.77-0.53-1.16-0.79c-7.55-6.72-15.52-13.02-22.56-20.23
		c-14.37-14.74-23.51-32.61-28.62-52.41c-1.74-6.74-5.49-13.59-1.76-20.93c0.17-0.34-0.62-1.09-0.75-1.69
		c-0.65-3.01-1.73-6.04-1.75-9.06c-0.16-20.78-0.16-41.56-0.03-62.34c0.03-4.68,0.39-9.43,1.24-14.03
		c3.17-16.98,12.58-30.68,24.68-42.29c8.52-8.18,18.02-15.62,28.01-21.94c13.92-8.81,29.22-14.69,45.85-16.63
		c4.01-0.47,7.91-1.92,11.86-2.91c2.67,0,5.33,0,8,0c1,0,2,0,3,0c0.67,0,1.33,0,2,0c0.33,0,0.67,0,1,0c1.33,0,2.67,0,4,0
		c0.33,0,0.67,0,1,0c0.67,0,1.33,0,2,0s1.33,0,2,0c2.67,0,5.33,0,8,0c0.66,0.35,1.32,0.71,1.98,1.06c4.4,0.66,8.85,1.1,13.19,2.01
		c15.56,3.25,30.35,8.62,43.88,17.02c6.71,4.17,13.42,8.43,19.54,13.38c4.93,3.99,8.97,9.09,13.41,13.69
		c0.6,0.58,1.19,1.16,1.79,1.74c0.79,1.22,1.47,2.53,2.38,3.64c11.37,13.92,16.19,30.17,16.48,47.8
		c0.31,18.95,0.25,37.91-0.01,56.86c-0.12,8.89-0.48,17.86-1.83,26.62c-0.93,6.03-3.63,11.81-5.74,17.64
		c-10.37,28.65-28.61,50.91-54.59,66.92c-1.11,0.68-2.13,2.49-2.15,3.79c-0.17,10.81-0.09,21.61-0.11,32.42
		c0,2.17,0.18,3.57,3.12,3.9c4.96,0.56,9.84,1.87,14.73,2.98c24.54,5.6,49.17,10.86,73.58,16.95c31.68,7.9,53.46,27.85,65.11,57.91
		c8.73,22.53,15.54,45.8,23.31,68.71c4.2,12.37,8.62,24.67,12.94,37c0,2.99,0,5.99,0,8.98c-0.61,0.5-1.41,0.89-1.8,1.53
		c-3.77,6.11-9.07,9.68-16.34,8.34c-6.47-1.19-9.9-5.77-11.96-12.05c-10.13-30.96-20.75-61.77-30.82-92.76
		c-5.15-15.84-13.23-29.41-26.99-39.17c-11.99-8.51-25.99-11.06-40.24-13.78c0,11.51,0,22.45,0,33.44
		c4.28,1.65,8.66,2.86,12.58,4.94c22.96,12.19,34.47,31.69,35.35,57.34c0.52,15.28,0.18,30.6,0.06,45.9
		c-0.07,8.03-4.97,14.91-12.48,15.85c-7.38,0.92-15.11,1.22-22.4,0.06c-8.46-1.35-14.21-11.61-10.91-19.36
		c2.93-6.86,7.8-10.39,15.36-10.45c0-11.53,0.3-22.84-0.09-34.11c-0.35-10.07-4.53-18.46-12.85-24.62
		c-9.69-7.16-20.38-9.12-31.61-5.17c-11.82,4.16-19.7,13.12-21.08,25.32c-1.43,12.66-0.32,25.6-0.32,38.52
		c0.85,0.12,1.5,0.18,2.14,0.29c10.1,1.74,14.17,8.58,13.4,16.71c-0.74,7.83-6.92,13.39-15.95,13.23c-4.83-0.08-9.66,0.01-14.5-0.02
		c-9.61-0.06-15.45-5.93-15.45-15.6c-0.01-17.13-0.45-34.28,0.27-51.38c0.31-7.4,2.03-15.13,4.94-21.94
		c7.5-17.6,21.65-28.45,39.45-34.61c2.88-1,3.53-2.17,3.51-4.8c-0.08-10.81-0.18-21.62,0.05-32.43c0.07-3.44-1.39-4.34-4.39-4.98
		c-11.21-2.43-22.33-5.31-33.57-7.58c-1.85-0.37-5.16,0.89-6.11,2.43c-13.44,21.95-26.63,44.05-39.78,66.17
		c-4.51,7.6-11.78,10.04-20.14,7.14c-5.4-1.87-6.81-6.67-9.27-10.7c-12.59-20.71-25.06-41.5-37.54-62.28
		c-1.59-2.64-3.27-3.85-6.67-2.64c-4.3,1.53-8.88,2.31-13.35,3.33c-5.91,1.35-11.79,3.3-17.76,3.71c-5.66,0.38-6.16,3.03-6.03,7.58
		c0.27,8.81,0.08,17.63,0.08,26.44c0,13.62,0,27.24,0,40.7c1.87,0.74,3.4,1.26,4.85,1.94c10.78,5.01,17.93,13.58,23.37,23.82
		c0.25,0.26,0.5,0.53,0.75,0.79c0.75,6.77,0.7,13.76,2.5,20.24c1.45,5.21-0.79,8.22-3.36,11.67c0,0.69,0,1.38,0,2.06
		c-8.17,28.26-47.29,41.54-71.92,21.67c-0.38-0.25-0.75-0.5-1.13-0.76c-14.49-12.52-20.77-28.22-16.71-47.03
		c3.29-15.24,12.43-26.62,26.83-33.01c3.64-1.61,4.42-3.33,4.38-6.81c-0.15-13.3-0.06-26.61-0.06-39.91c0-6.95,0-13.9,0-21.22
		c-6.24,1.42-11.91,2.91-17.66,3.99c-10.97,2.05-21.04,6.44-28.76,14.26c-6.44,6.53-13.03,13.89-16.49,22.16
		c-6.91,16.55-11.72,33.97-17.38,51.04c-6.03,18.15-12.01,36.31-18.09,54.44c-2.56,7.64-8.97,12.96-17.22,12.12
		C58.54,564.12,55.43,559.48,52.29,554.77z M307.46,423.03c0.06,0.26,0.11,0.52,0.17,0.78c0.26-0.25,0.51-0.49,0.77-0.74
		c9.11-14.95,18.24-29.89,27.32-44.87c1.99-3.28,5.14-6.6,5.37-10.07c0.71-10.55,0.26-21.18,0.26-31.77
		c-22.18,5.17-43.95,5.62-66.1-0.07c0,9.7-0.16,19.32,0.1,28.92c0.08,2.81,0.79,5.93,2.21,8.32
		C287.37,390.12,297.46,406.55,307.46,423.03z M211.06,148.65c0.08,7.96,0.17,15.91,0.25,23.87c0.06,1.03,0.12,2.06,0.19,3.1
		c0.34,0.02,0.68,0.04,1.03,0.06c0.63-1.04,1.25-2.07,1.88-3.11c5.93-5.8,11.86-11.6,17.78-17.41c5.66-5.57,11.88-6.43,19.21-3.06
		c17.85,8.21,36.39,13.73,56.27,13.41c6.25-0.1,12.5-0.62,18.74-0.98c0.64-0.04,1.27-0.28,1.88-0.48
		c12.62-4.28,25.14-8.88,37.89-12.71c5.78-1.74,11.83-2.14,16.82,3.31c6.06,6.62,12.65,12.75,19.05,19.06
		c0.82,0.81,1.85,1.41,3.32,2.51c0-10.23,0.72-19.6-0.26-28.79c-0.63-5.9-2.52-12.49-6.07-17.07c-6.79-8.76-14.46-17.17-23.04-24.16
		c-15.48-12.63-33.87-19.84-53.73-21.23c-12.88-0.9-26.09,0.16-38.93,1.95c-19.6,2.73-36.65,11.93-50.88,25.41
		c-7.22,6.84-12.86,15.43-18.73,23.57c-2.16,3-2.94,7-4.35,10.55C209.95,147.17,210.51,147.91,211.06,148.65z M233.29,274.61
		c0.59,0.57,1.18,1.14,1.77,1.71c6.23,8.93,14.44,15.48,24.24,20.14c0.92,0.27,1.83,0.55,2.75,0.82c1.27,1.28,2.3,3.07,3.84,3.76
		c9.19,4.17,18.64,8.43,28.71,9c16.32,0.91,32.46-0.14,48.16-6.34c20.04-7.92,35.49-20.83,47.24-38.54
		c11.15-16.81,15.82-35.38,15.31-54.6c-4.63-2.31-9.08-3.73-12.52-6.43c-6.84-5.38-13.41-11.19-19.53-17.36
		c-3.24-3.27-5.95-3.32-9.92-1.96c-7.46,2.56-15.02,5.03-22.73,6.62c-9.05,1.86-18.27,3.05-27.47,3.93
		c-5.94,0.57-12.03,0.54-17.96-0.1c-8.33-0.9-16.58-2.62-24.86-3.99c-0.69-0.25-1.39-0.51-2.08-0.76c-2.76-0.93-5.57-1.71-8.26-2.81
		c-12.32-5.03-12.34-5.1-21.35,3.99c-7.3,7.36-15.12,13.84-25.16,17.3c-1.42,0.49-3.06,3.09-3,4.65c0.55,12.52,2.64,24.7,7.66,36.37
		C221.98,259.02,226.46,267.5,233.29,274.61z M212.29,518.09c0.67-10.95-8.3-17.21-16.98-17.22c-10.28-0.01-16.55,7.65-16.86,16.94
		c-0.26,7.85,6.93,16.98,16.63,17.04C203.54,534.89,213.12,527.38,212.29,518.09z"/>
	<path class="st1" d="M120.53,496.88c0,2.33,0,4.66,0,6.99C120.53,501.54,120.53,499.21,120.53,496.88z"/>
	<path class="st2" d="M371.53,4.84c-1,0-2,0-3,0C369.53,4.84,370.53,4.84,371.53,4.84z"/>
	<path class="st2" d="M383.53,4.84c-0.67,0-1.33,0-2,0C382.2,4.84,382.86,4.84,383.53,4.84z"/>
	<path class="st3" d="M393.53,4.84c-0.01,0.35-0.02,0.71-0.02,1.06c-0.66-0.35-1.32-0.71-1.98-1.06
		C392.2,4.84,392.86,4.84,393.53,4.84z"/>
	<path class="st2" d="M374.53,4.84c-0.33,0-0.67,0-1,0C373.86,4.84,374.2,4.84,374.53,4.84z"/>
	<path class="st2" d="M379.53,4.84c-0.33,0-0.67,0-1,0C378.86,4.84,379.2,4.84,379.53,4.84z"/>
	<path class="st4" d="M280.53,469.18c0.83,9.29-8.76,16.8-17.21,16.76c-9.7-0.05-16.89-9.18-16.63-17.04
		c0.31-9.29,6.58-16.95,16.86-16.94C272.23,451.97,281.2,458.23,280.53,469.18z"/>
	<path class="st1" d="M153.76,396.09c0.55-1.35,1.11-2.69,1.66-4.04C154.87,393.39,154.32,394.74,153.76,396.09z"/>
	<path class="st5" d="M313.22,277.43c-0.93-0.9-1.85-1.81-2.78-2.71c0.36-0.19,0.73-0.38,1.09-0.57
		C312.1,275.24,312.66,276.34,313.22,277.43z"/>
	<path class="st4" d="M279.55,123.61c1.03,0.01,2.06,0.03,3.09,0.04c-0.63,1.04-1.25,2.07-1.88,3.11c-0.34-0.02-0.68-0.04-1.03-0.06
		C279.68,125.68,279.61,124.64,279.55,123.61z"/>
	<path class="st3" d="M307.43,482.88c0.54,0.26,1.07,0.53,1.61,0.79c-0.54,0.42-1.07,0.85-1.61,1.27
		C307.43,484.25,307.43,483.56,307.43,482.88z"/>
	<path class="st6" d="M483.53,52.01c0.6,0.58,1.19,1.16,1.79,1.74C484.72,53.17,484.12,52.59,483.53,52.01z"/>
	<path class="st7" d="M277.63,97.52c0.56,0.74,1.11,1.48,1.67,2.22C278.74,99,278.19,98.26,277.63,97.52z"/>
	<path class="st8" d="M327.53,247.55c0.92,0.27,1.83,0.55,2.75,0.82C329.36,248.1,328.45,247.82,327.53,247.55z"/>
	<path class="st8" d="M301.53,225.7c0.59,0.57,1.18,1.14,1.77,1.71C302.7,226.84,302.12,226.27,301.53,225.7z"/>
	<path class="st9" d="M338.53,142.37c-0.69-0.25-1.39-0.51-2.08-0.76C337.14,141.86,337.84,142.12,338.53,142.37z"/>
	<path class="st8" d="M311.53,274.15c-0.36,0.19-0.73,0.38-1.09,0.57c-0.24-0.47-0.48-0.94-0.72-1.41
		C310.33,273.58,310.93,273.87,311.53,274.15z"/>
	<path class="st10" d="M375.7,374.12c0.31,0,0.62,0.01,0.93,0.04c-0.26,0.25-0.51,0.49-0.77,0.74
		C375.81,374.64,375.75,374.38,375.7,374.12z"/>
	<path class="st11" d="M307.54,450.16c0.25,0.26,0.5,0.53,0.75,0.79C308.04,450.69,307.79,450.43,307.54,450.16z"/>
	<path class="st8" d="M235.51,506.61c-0.38-0.25-0.75-0.5-1.13-0.76C234.76,506.1,235.14,506.36,235.51,506.61z"/>
	<path class="st8" d="M305.52,270.1c-0.39-0.26-0.77-0.53-1.16-0.79C304.74,269.57,305.13,269.84,305.52,270.1z"/>
</g>
</svg>
